HIERARCHY
ROOT Hips
{
  OFFSET 3.13124 94.3669 -3.18751
  CHANNELS  6 Xposition Yposition Zposition Zrotation Xrotation Yrotation
  JOINT LeftUpLeg
  {
    OFFSET 8.64259 1.95398 -2.38835
    CHANNELS 3 Zrotation Xrotation Yrotation
    JOINT LeftLeg
    {
      OFFSET 43.7702 0 0
      CHANNELS 3 Zrotation Xrotation Yrotation
      JOINT LeftFoot
      {
        OFFSET 40.6238 0 0
        CHANNELS 3 Zrotation Xrotation Yrotation
        JOINT LeftToeBase
        {
          OFFSET 12.7242 0 0
          CHANNELS 3 Zrotation Xrotation Yrotation
          End Site
          {
            OFFSET 0 0 0
          }
        }
      }
    }
  }
  JOINT RightUpLeg
  {
    OFFSET -8.2249 1.95398 -2.59336
    CHANNELS 3 Zrotation Xrotation Yrotation
    JOINT RightLeg
    {
      OFFSET 43.5653 0 0
      CHANNELS 3 Zrotation Xrotation Yrotation
      JOINT RightFoot
      {
        OFFSET 40.6238 0 0
        CHANNELS 3 Zrotation Xrotation Yrotation
        JOINT RightToeBase
        {
          OFFSET 12.7242 0 0
          CHANNELS 3 Zrotation Xrotation Yrotation
          End Site
          {
            OFFSET 0 0 0
          }
        }
      }
    }
  }
  JOINT Spine
  {
    OFFSET 0.165834 0.87714 6.61349
    CHANNELS 3 Zrotation Xrotation Yrotation
    JOINT Spine1
    {
      OFFSET 7.38962 1.71661e-005 0
      CHANNELS 3 Zrotation Xrotation Yrotation
      JOINT Spine2
      {
        OFFSET 11.9445 1.14441e-005 0
        CHANNELS 3 Zrotation Xrotation Yrotation
        JOINT Spine3
        {
          OFFSET 14.7254 4.19617e-005 0
          CHANNELS 3 Zrotation Xrotation Yrotation
          JOINT Spine4
          {
            OFFSET 10.9679 0 0
            CHANNELS 3 Zrotation Xrotation Yrotation
            JOINT RightShoulder
            {
              OFFSET 2.46616 -1.6653 3.69651
              CHANNELS 3 Zrotation Xrotation Yrotation
              JOINT RightArm
              {
                OFFSET 13.0012 0 0
                CHANNELS 3 Zrotation Xrotation Yrotation
                JOINT RightForeArm
                {
                  OFFSET 28.7848 1.52588e-005 0
                  CHANNELS 3 Zrotation Xrotation Yrotation
                  JOINT RightHand
                  {
                    OFFSET 26.5688 1.52588e-005 0
                    CHANNELS 3 Zrotation Xrotation Yrotation
                    End Site
                    {
                      OFFSET 0 0 0
                    }
                  }
                }
              }
            }
            JOINT LeftShoulder
            {
              OFFSET 2.38034 -1.29275 -3.75231
              CHANNELS 3 Zrotation Xrotation Yrotation
              JOINT LeftArm
              {
                OFFSET 16.3182 6.10352e-005 0
                CHANNELS 3 Zrotation Xrotation Yrotation
                JOINT LeftForeArm
                {
                  OFFSET 27.0901 0 0
                  CHANNELS 3 Zrotation Xrotation Yrotation
                  JOINT LeftHand
                  {
                    OFFSET 24.5451 1.52588e-005 0
                    CHANNELS 3 Zrotation Xrotation Yrotation
                    End Site
                    {
                      OFFSET 0 0 0
                    }
                  }
                }
              }
            }
            JOINT Neck
            {
              OFFSET 5.0226 -0.0266342 0
              CHANNELS 3 Zrotation Xrotation Yrotation
              JOINT Head
              {
                OFFSET 6.69363 2.86102e-005 0
                CHANNELS 3 Zrotation Xrotation Yrotation
                End Site
                {
                  OFFSET 0 0 0
                }
              }
            }
          }
        }
      }
    }
  }
}
MOTION
Frames:	13
Frame Time:	0.0333333
-16.6871 91.2416 -118.977 -80.7661 -46.6621 -90.0347 -166.584 15.8332 108.156 -33.8068 9.32518 2.27942 4.76836 8.32623 10.543 28.7808 5.76549e-006 8.90265e-006 -178.493 40.9355 81.4756 -41.7234 17.098 0.684727 52.2461 -7.10205 -4.66282 28.7808 1.3803e-005 3.16228e-005 -0.651653 7.64787 -87.0413 11.5487 0.142123 2.55021 -0.124774 0.254196 2.54149 -22.6406 -0.630627 2.47514 -2.62794 -0.630654 2.47512 99.7589 -10.5932 -89.3485 12.6632 -0.149032 8.07955 6.97623 -3.2135 -52.6932 -5.37983 -0.32001 -0.0162411 -72.4834 -34.693 106.839 25.6773 -38.6264 20.3398 4.91067 67.5222 0.060185 4.77591 -0.369069 -8.93073 -30.6154 -7.2586 7.78585 6.30639 -7.29721 -12.06 
-19.8671 93.4073 -118.353 -81.3263 -41.3601 -91.4021 -168.251 15.6166 105.328 -29.912 1.55739 1.38566 12.9228 10.4082 12.278 28.7808 5.76549e-006 8.90265e-006 -179.454 37.642 84.3512 -37.2936 12.7069 0.466621 49.5882 -10.0847 -7.08797 28.7808 1.3803e-005 3.16228e-005 -1.17468 7.66608 -87.205 11.4984 -0.952246 2.51371 -0.174683 -0.840741 2.55313 -22.698 -1.66354 2.11158 -2.68533 -1.66355 2.11156 99.589 -10.7078 -89.8621 10.6304 17.2232 5.49925 9.05165 -2.51269 -31.2142 -5.37983 -0.32001 -0.0162411 -72.9973 -34.5319 105.907 24.9658 -41.7209 10.5643 6.76089 76.5379 -2.35937 4.21652 0.255417 1.7432 -27.587 -5.0931 7.17144 4.15298 -5.09894 -11.7653 
-22.6066 94.9447 -117.592 -82.4317 -38.3652 -91.9652 -169.782 16.2061 102.806 -24.7007 0.719977 2.16481 25.7139 10.962 10.7358 28.7808 5.76549e-006 8.90265e-006 -179.928 34.4301 86.5503 -34.8795 12.0566 0.463263 47.6448 -10.2771 -7.46396 28.7808 1.3803e-005 3.16228e-005 -1.33634 7.7318 -87.6408 11.3788 -1.44161 2.48048 -0.29385 -1.33109 2.54147 -22.8228 -2.12033 1.93278 -2.81015 -2.12033 1.93278 100.99 -15.0433 -85.3116 5.44739 30.3668 5.15584 2.88894 -0.147091 -14.1186 -5.37983 -0.32001 -0.0162411 -76.9657 -30.121 98.6722 22.596 -44.3345 1.40633 6.87324 89.3242 -0.134543 11.0038 0.132514 -2.49923 -25.761 -4.2906 2.32994 2.36164 -4.56087 -9.94509 
-24.8858 95.7803 -116.945 -82.6125 -35.6285 -90.9125 -171.525 20.0212 101.116 -21.4548 -0.626831 2.91938 31.3338 7.19861 6.01701 28.7808 5.76549e-006 8.90265e-006 179.823 33.0123 89.3671 -34.0214 14.0753 0.616157 46.2841 -9.36947 -6.90744 28.7808 1.3803e-005 3.16228e-005 -1.35061 7.67726 -88.3731 11.5049 -1.79679 2.039 -0.166544 -1.70535 2.11608 -22.7047 -2.32646 1.40473 -2.69201 -2.32647 1.40474 102.653 -17.585 -80.8911 -2.65034 39.1228 10.4497 -2.38608 -0.0684342 -9.09441 -5.37983 -0.32001 -0.0162411 -80.7406 -25.5406 90.8277 20.432 -45.8184 -5.25282 179.379 85.2575 -171.359 14.0044 -0.226897 -5.3527 -25.1044 -3.90788 -1.70885 2.78094 -4.43095 -7.31364 
-27.0555 96.0597 -116.2 -82.9667 -29.2461 -90.6616 -172.235 23.2898 100.06 -20.2196 1.26325 3.1373 32.875 3.33772 2.02104 28.7808 5.76549e-006 8.90265e-006 179.703 31.9861 92.6626 -33.601 15.0457 0.692764 45.7715 -9.5907 -7.14376 28.7808 1.3803e-005 3.16228e-005 -1.21668 7.61054 -88.6945 11.6468 -1.67737 1.7563 -0.0243054 -1.59842 1.8284 -22.5632 -2.12762 1.17097 -2.55057 -2.12758 1.17097 104.8 -17.6373 -75.4041 -7.19722 40.1802 15.3412 -5.45953 0.310438 -5.92129 -5.37983 -0.32001 -0.0162411 -82.996 -21.253 85.2922 19.6602 -47.4953 -9.10096 -172.998 81.5159 -178.052 19.1254 0.170849 -3.01036 -24.5326 -2.91601 -4.33742 4.00633 -3.56207 -4.94829 
-29.2795 96.0285 -115.155 -83.8603 -18.838 -92.9583 -172.648 23.8084 98.437 -18.8518 9.06157 4.25374 31.3097 1.01242 -0.408246 28.7808 5.76549e-006 8.90265e-006 179.822 29.7966 95.0391 -32.7569 15.5616 0.732348 47.0871 -11.3918 -8.43165 28.7808 1.3803e-005 3.16228e-005 -1.19567 7.57303 -88.4585 11.7199 -1.49597 2.06629 0.0480799 -1.4036 2.13009 -22.486 -2.04776 1.52126 -2.47335 -2.04775 1.52126 105.583 -17.507 -73.3939 -7.05173 38.1634 17.4818 -3.28122 0.242601 -7.54632 -5.37983 -0.32001 -0.0162411 -83.6831 -18.9373 83.1921 23.2638 -48.9417 -7.61197 -169.857 76.2414 179.899 26.5945 0.88938 -0.538583 -24.0115 -0.833387 -5.54635 4.04107 -1.37845 -2.40581 
-31.5261 95.5477 -113.737 -84.3697 -6.03496 -94.2855 -172.61 23.5692 97.4914 -18.2308 9.66505 4.04722 32.8405 -6.05473 -7.48962 28.7808 5.76549e-006 8.90265e-006 179.89 28.0756 97.0745 -33.8863 17.2083 0.82369 49.6318 -13.0137 -9.34048 28.7808 1.3803e-005 3.16228e-005 -1.18719 7.51574 -88.154 11.8313 -1.3346 2.51134 0.158487 -1.22278 2.56759 -22.3688 -2.02751 1.99441 -2.35612 -2.02752 1.9944 104.905 -17.3277 -75.1019 -4.83907 38.0249 17.5154 -3.56498 0.149401 -8.27012 -5.37983 -0.32001 -0.0162411 -82.563 -17.4549 85.4724 25.3009 -48.1416 -4.39891 -170.493 73.6936 179.95 21.775 1.38941 2.52521 -22.7708 1.53477 -3.91152 2.04839 1.28081 -0.958808 
-33.6595 94.9795 -111.77 -83.9316 8.0564 -98.483 -172.905 24.7211 95.635 -22.8567 23.9594 5.56037 36.2375 5.72038 4.07132 28.7808 5.76549e-006 8.90265e-006 -179.976 26.5949 98.3978 -34.8971 18.9402 0.91966 52.8406 -13.9259 -9.53297 28.7808 1.3803e-005 3.16228e-005 -1.13917 7.46738 -87.8003 11.9176 -1.03144 2.66869 0.24425 -0.913003 2.71145 -22.2776 -1.78564 2.23566 -2.26499 -1.78561 2.23566 104.137 -17.7369 -77.1079 -2.78602 37.7964 16.9388 -3.56682 0.0861138 -7.48049 -5.37983 -0.32001 -0.0162411 -80.1123 -17.4667 91.3592 22.7848 -47.7042 -4.90806 -170.7 78.0279 179.937 24.3247 1.41814 1.98051 -19.5798 3.17043 0.428408 -0.694798 3.20623 -1.52398 
-35.9065 94.2086 -109.383 -82.1473 22.8547 -100.082 -172.905 25.8944 95.2865 -24.4551 19.5754 3.8693 41.5707 4.68107 2.97612 28.7808 5.76549e-006 8.90265e-006 179.663 27.2108 99.8147 -38.0084 21.2057 1.04871 55.4218 -15.0793 -9.93449 28.7808 1.3803e-005 3.16228e-005 -0.80016 7.41669 -87.8738 12.0234 -0.414735 2.58199 0.349924 -0.300716 2.59771 -22.1682 -1.17132 2.33821 -2.15551 -1.17132 2.33822 103.688 -19.0395 -78.3411 -1.66494 37.6728 16.9382 -3.74526 0.0438393 -8.09936 -5.37983 -0.32001 -0.0162411 -79.2109 -19.0018 93.6474 23.1249 -45.5022 -1.30045 -171.892 78.9761 179.933 24.9302 1.54703 2.36376 -17.8378 4.35248 2.99841 -0.390217 4.43328 -0.636792 
-38.4904 93.6489 -106.818 -78.9369 36.8459 -103.707 -172.777 26.0814 94.8694 -25.1963 25.984 5.22633 46.4044 2.09255 0.819757 28.7808 5.76549e-006 8.90265e-006 179.452 27.5252 100.763 -39.3491 24.5301 1.28618 57.8449 -15.9823 -10.1359 28.7808 1.3803e-005 3.16228e-005 -0.465709 7.45733 -88.0731 11.9464 0.116075 2.46396 0.273163 0.224362 2.45647 -22.2441 -0.629588 2.38504 -2.23143 -0.629589 2.38503 103.339 -20.5624 -79.2821 1.13282 37.0191 15.7773 -3.74486 0.00589463 -9.77355 -5.37983 -0.32001 -0.0162411 -79.0154 -19.9027 94.1564 21.9884 -43.6205 4.63395 -172.024 81.0238 179.978 26.3317 1.85641 3.23433 -14.1557 5.36062 4.81561 -1.75296 5.31591 0.868921 
-41.5093 93.4466 -104.175 -72.3351 50.0272 -110.752 -173.275 27.7139 93.8726 -27.6845 31.4337 6.91222 50.6251 0.357917 -0.408942 28.7808 5.76549e-006 8.90265e-006 179.65 27.5656 100.543 -37.8648 27.3089 1.53747 60.5302 -16.7706 -10.1788 28.7808 1.3803e-005 3.16228e-005 -0.220821 7.44561 -88.2027 11.9721 0.555481 2.39267 0.299148 0.660219 2.36592 -22.2183 -0.189068 2.44898 -2.2057 -0.189048 2.44899 102.219 -21.5493 -81.9847 3.82754 36.4648 16.1868 -3.69308 0.0153208 -10.7501 -5.37983 -0.32001 -0.0162411 -78.8863 -21.4672 94.5332 20.1887 -41.6124 10.9567 178.815 87.1685 -171.385 30.7684 1.96212 2.52259 -10.8885 6.03576 7.22288 -2.57589 5.71922 1.17532 
-44.8317 93.6528 -101.53 -59.4781 61.1202 -124.324 -173.951 33.1651 92.1445 -33.7163 24.8846 4.19027 48.7458 4.04171 2.26118 28.7808 5.76549e-006 8.90265e-006 -179.865 27.583 99.1024 -34.2411 27.217 1.55074 62.2842 -16.9779 -9.99858 28.7808 1.3803e-005 3.16228e-005 -0.239653 7.41746 -87.8779 12.0324 0.879481 2.22096 0.359939 0.976355 2.18012 -22.1602 0.171527 2.3825 -2.14756 0.171539 2.3825 101.161 -22.142 -84.4633 6.831 36.7976 16.5191 -4.40526 -0.0429115 -11.5134 -5.37983 -0.32001 -0.0162411 -78.363 -24.0245 95.7857 16.829 -40.2435 14.6324 50.5698 86.1172 -43.7858 22.9726 1.56528 2.9771 -7.84446 6.40573 10.4274 -2.50397 5.64519 0.644444 
-48.6257 93.6405 -98.8431 -34.7551 69.9441 -148.864 -174.843 32.7288 91.9157 -34.1788 40.9401 11.9121 53.8495 -2.33096 -2.14679 28.7808 5.76549e-006 8.90265e-006 -176.917 13.7626 96.1989 -5.06183 15.4958 0.941386 62.6401 -20.1233 -11.8086 28.7808 1.3803e-005 3.16228e-005 0.235025 7.64168 -88.5961 11.6015 1.30031 2.03492 -0.0703308 1.38859 1.97573 -22.5943 0.628808 2.33148 -2.5817 0.628801 2.33148 100.521 -21.855 -85.9862 11.6549 36.7316 16.3897 -5.31422 0.185719 -11.6207 -5.37983 -0.32001 -0.0162411 -77.7505 -28.2535 97.131 13.8827 -39.7463 15.41 46.3093 85.3836 -39.2031 21.3932 1.06689 1.12367 -3.0676 6.88779 15.1894 -2.48457 5.1302 -2.43282 
